<svg width="40" height="40" viewBox="0 0 40 40" fill="none" xmlns="http://www.w3.org/2000/svg">
<path d="M19.0002 26.6665L23.3335 22.3332L27.6668 26.6665L30.0002 24.3332L25.6668 19.9998L30.0002 15.6665L27.6668 13.3332L23.3335 17.6665L19.0002 13.3332L16.6668 15.6665L21.0002 19.9998L16.6668 24.3332L19.0002 26.6665ZM15.0002 33.3332C14.4724 33.3332 13.9724 33.2151 13.5002 32.979C13.0279 32.7429 12.6391 32.4165 12.3335 31.9998L3.3335 19.9998L12.3335 7.99984C12.6391 7.58317 13.0279 7.25678 13.5002 7.02067C13.9724 6.78456 14.4724 6.6665 15.0002 6.6665H33.3335C34.2502 6.6665 35.0349 6.99289 35.6877 7.64567C36.3404 8.29845 36.6668 9.08317 36.6668 9.99984V29.9998C36.6668 30.9165 36.3404 31.7012 35.6877 32.354C35.0349 33.0068 34.2502 33.3332 33.3335 33.3332H15.0002ZM7.50016 19.9998L15.0002 29.9998H33.3335V9.99984H15.0002L7.50016 19.9998Z" fill="white"/>
</svg>
